<?xml version="1.0" standalone="no"?>
<!DOCTYPE svg PUBLIC "-//W3C//DTD SVG 20010904//EN"
 "http://www.w3.org/TR/2001/REC-SVG-20010904/DTD/svg10.dtd">
<svg version="1.0" xmlns="http://www.w3.org/2000/svg"
 width="500.000000pt" height="500.000000pt" viewBox="0 0 500.000000 500.000000"
 preserveAspectRatio="xMidYMid meet">

<g transform="translate(0.000000,500.000000) scale(0.100000,-0.100000)"
fill="#000000" stroke="none">
<path d="M3510 2754 c0 -78 -2 -85 -17 -79 -94 36 -170 26 -233 -31 -59 -53
-81 -108 -81 -198 0 -108 30 -170 109 -225 44 -31 128 -39 181 -17 36 14 41
14 41 1 0 -12 17 -15 95 -15 l95 0 0 30 0 30 39 -26 c49 -32 140 -43 206 -24
53 15 132 80 151 125 l13 30 14 -35 c7 -19 22 -56 31 -82 l18 -48 98 0 c84 0
99 2 105 18 4 9 18 49 32 87 13 39 49 138 79 221 30 84 54 157 54 163 0 8 -29
11 -97 9 l-97 -3 -35 -117 c-19 -65 -37 -118 -41 -118 -3 0 -22 53 -41 118
l-35 117 -94 3 c-62 2 -96 -1 -100 -9 -6 -8 -14 -8 -31 2 -13 7 -56 13 -94 13
-58 1 -80 -4 -123 -26 l-52 -27 0 99 0 100 -95 0 -95 0 0 -86z m170 -50 l0
-116 32 31 c66 65 197 77 286 26 37 -21 41 -22 32 -5 -5 10 -10 21 -10 24 0 3
36 6 79 6 l79 0 11 -32 c5 -18 24 -80 41 -138 18 -58 35 -109 38 -114 3 -5 25
55 49 134 24 79 45 145 47 147 2 2 37 3 79 1 l75 -3 -78 -220 -78 -220 -92 0
-93 0 -38 105 c-21 58 -38 99 -38 93 -1 -10 -39 -13 -156 -13 -133 0 -155 -2
-155 -15 0 -9 11 -27 25 -40 30 -31 75 -33 100 -5 15 17 31 20 97 20 78 0 79
0 73 -22 -35 -113 -190 -171 -313 -118 -29 13 -62 34 -72 48 l-20 25 0 -42 0
-41 -75 0 c-69 0 -75 2 -75 21 0 20 0 20 -32 -2 -45 -33 -132 -38 -184 -11
-82 42 -115 105 -115 218 0 93 28 155 90 199 57 40 145 43 204 7 l37 -24 0 96
0 96 75 0 75 0 0 -116z m230 -333 c0 -23 -62 -28 -80 -6 -11 13 -6 15 34 15
25 0 46 -4 46 -9z"/>
<path d="M3834 2549 c-12 -6 -27 -22 -33 -35 l-11 -24 80 0 c44 0 80 4 80 9 0
5 -8 18 -17 30 -21 25 -70 35 -99 20z m64 -15 c37 -10 25 -24 -23 -24 -43 0
-60 12 -32 23 17 8 29 8 55 1z"/>
<path d="M3391 2534 c-31 -22 -52 -75 -45 -113 9 -43 50 -81 88 -81 92 0 128
123 55 184 -35 30 -65 33 -98 10z m78 -19 c45 -23 55 -85 20 -129 -22 -29 -63
-35 -92 -13 -41 29 -37 124 5 145 31 14 35 14 67 -3z"/>
<path d="M550 2470 l0 -280 85 0 85 0 0 92 c0 50 3 88 8 84 4 -4 21 -44 38
-89 l31 -82 68 0 68 0 29 80 c16 44 34 84 39 90 5 5 9 -26 9 -83 l0 -92 85 0
85 0 0 280 0 280 -93 0 -93 0 -59 -151 c-33 -83 -62 -152 -66 -155 -7 -4 -86
177 -116 264 l-15 42 -94 0 -94 0 0 -280z"/>
<path d="M1220 2470 l0 -280 85 0 85 0 0 280 0 280 -85 0 -85 0 0 -280z"/>
<path d="M1609 2736 c-90 -32 -156 -102 -180 -190 -16 -58 -6 -155 22 -211 83
-166 313 -200 453 -67 52 50 66 87 66 177 l0 75 -155 0 -155 0 0 -70 0 -70 68
0 67 -1 -25 -20 c-20 -17 -34 -20 -72 -17 -57 6 -84 27 -99 79 -25 82 24 169
96 169 39 0 75 -15 88 -36 11 -19 187 -20 187 -1 0 6 -9 30 -19 52 -41 90
-133 145 -241 144 -36 0 -81 -6 -101 -13z"/>
<path d="M2002 2537 l3 -214 29 -41 c38 -55 77 -78 157 -93 57 -10 72 -10 118
6 64 21 118 66 142 120 16 34 19 68 19 238 l0 197 -85 0 -85 0 0 -184 c0 -151
-3 -187 -15 -200 -24 -23 -52 -28 -82 -14 l-28 13 -3 193 -2 192 -86 0 -85 0
3 -213z"/>
<path d="M2520 2470 l0 -280 180 0 180 0 0 70 0 70 -95 0 -95 0 0 35 0 35 80
0 80 0 0 70 0 70 -80 0 -80 0 0 30 0 30 95 0 95 0 0 75 0 75 -180 0 -180 0 0
-280z"/>
<path d="M2974 2376 c-103 -46 -71 -186 42 -186 89 0 135 96 77 160 -33 36
-76 45 -119 26z m109 -37 c26 -33 22 -83 -9 -108 -56 -44 -144 -10 -144 57 0
73 105 109 153 51z"/>
</g>
</svg>
