<?xml version="1.0" standalone="no"?>
<!DOCTYPE svg PUBLIC "-//W3C//DTD SVG 20010904//EN"
 "http://www.w3.org/TR/2001/REC-SVG-20010904/DTD/svg10.dtd">
<svg version="1.0" xmlns="http://www.w3.org/2000/svg"
 width="500.000000pt" height="500.000000pt" viewBox="0 0 500.000000 500.000000"
 preserveAspectRatio="xMidYMid meet">

<g transform="translate(0.000000,500.000000) scale(0.100000,-0.100000)"
fill="#000000" stroke="none">
<path d="M3530 2714 l0 -95 -32 22 c-48 34 -140 37 -193 7 -133 -78 -141 -306
-14 -400 59 -44 155 -43 213 3 l26 20 0 -25 c0 -25 1 -26 70 -26 l70 0 0 51 0
50 34 -35 c101 -108 297 -88 362 36 23 44 19 48 -54 48 -56 0 -72 -4 -87 -20
-20 -22 -73 -27 -105 -10 -10 5 -23 23 -28 40 l-11 30 153 0 c151 0 154 0 160
23 6 17 16 -4 49 -95 l42 -118 85 0 85 0 75 212 c41 117 76 218 78 226 3 10
-12 12 -69 10 l-72 -3 -48 -155 c-35 -115 -49 -150 -55 -135 -4 10 -26 80 -49
155 l-41 135 -73 3 c-79 3 -78 4 -56 -51 6 -14 -4 -10 -39 14 -40 28 -57 34
-116 37 -60 4 -78 1 -124 -22 -32 -16 -63 -40 -75 -59 l-21 -32 0 128 0 127
-70 0 -70 0 0 -96z m398 -170 c12 -8 22 -24 22 -35 0 -17 -7 -19 -80 -19 -87
0 -96 7 -58 47 26 27 82 31 116 7z m-424 -25 c20 -23 26 -42 26 -75 0 -56 -12
-79 -51 -100 -99 -51 -190 96 -110 177 42 42 99 41 135 -2z"/>
<path d="M2967 2348 c-45 -35 -37 -101 15 -126 80 -38 153 64 86 121 -24 20
-77 23 -101 5z"/>
</g>
</svg>
