<?xml version="1.0" encoding="UTF-8"?>
<svg xmlns="http://www.w3.org/2000/svg" xmlns:xlink="http://www.w3.org/1999/xlink" width="500px" height="250px" viewBox="0 0 500 250" version="1.1">
<g id="surface1">
<path style=" stroke:none;fill-rule:nonzero;fill:rgb(50.196081%,50.196081%,50.196081%);fill-opacity:1;" d="M 118.328125 113.925781 L 118.328125 141.042969 L 100.285156 141.042969 L 100.285156 124.230469 L 103.035156 124.230469 L 105.613281 124.710938 L 93.4375 141.042969 L 79.5 141.042969 L 67.246094 124.675781 L 69.816406 124.195312 L 72.566406 124.195312 L 72.566406 141.042969 L 54.53125 141.042969 L 54.53125 112.550781 L 73.949219 112.550781 L 89.089844 131.230469 L 86.542969 131.746094 L 83.988281 131.234375 L 98.980469 112.550781 L 118.328125 112.550781 Z M 112.828125 113.925781 L 115.578125 113.925781 L 115.578125 115.300781 L 100.839844 115.300781 L 100.839844 113.925781 L 103.390625 114.441406 L 86.550781 135.425781 L 69.546875 114.445312 L 72.09375 113.925781 L 72.09375 115.300781 L 57.28125 115.300781 L 57.28125 113.925781 L 60.03125 113.925781 L 60.03125 139.667969 L 57.28125 139.667969 L 57.28125 138.292969 L 69.816406 138.292969 L 69.816406 139.667969 L 67.066406 139.667969 L 67.066406 124.195312 L 72.394531 123.710938 L 83.984375 139.183594 L 81.40625 139.667969 L 81.40625 138.292969 L 91.527344 138.292969 L 91.527344 139.667969 L 88.949219 139.1875 L 100.464844 123.75 L 105.785156 124.230469 L 105.785156 139.667969 L 103.035156 139.667969 L 103.035156 138.292969 L 115.578125 138.292969 L 115.578125 139.667969 L 112.828125 139.667969 Z M 112.828125 113.925781 "/>
<path style=" stroke:none;fill-rule:nonzero;fill:rgb(50.196081%,50.196081%,50.196081%);fill-opacity:1;" d="M 121.847656 112.550781 L 139.882812 112.550781 L 139.882812 141.042969 L 121.847656 141.042969 Z M 127.347656 115.300781 L 127.347656 138.292969 L 134.382812 138.292969 L 134.382812 115.300781 Z M 127.347656 115.300781 "/>
<path style=" stroke:none;fill-rule:nonzero;fill:rgb(50.196081%,50.196081%,50.196081%);fill-opacity:1;" d="M 177.984375 122.722656 C 177.324219 122.113281 176.371094 121.648438 175.136719 121.324219 C 173.796875 120.976562 172.175781 120.800781 170.28125 120.800781 C 167.03125 120.800781 164.453125 121.320312 162.550781 122.355469 C 160.59375 123.425781 159.609375 124.894531 159.609375 126.761719 C 159.609375 128.761719 160.640625 130.292969 162.691406 131.363281 C 164.71875 132.414062 167.589844 132.9375 171.308594 132.9375 C 173.785156 132.9375 175.84375 132.636719 177.488281 132.035156 C 179.144531 131.421875 180.371094 130.523438 181.167969 129.332031 L 183.777344 129.769531 L 183.777344 131.144531 L 165.109375 131.144531 L 165.109375 123.773438 L 197.890625 123.773438 L 197.890625 131.175781 L 197.777344 131.367188 C 196.738281 133.113281 194.988281 134.730469 192.53125 136.214844 C 190.050781 137.714844 186.921875 138.921875 183.140625 139.839844 C 179.339844 140.761719 175.078125 141.222656 170.355469 141.222656 C 164.792969 141.222656 159.8125 140.613281 155.410156 139.382812 C 150.972656 138.144531 147.519531 136.421875 145.042969 134.214844 C 142.582031 132.027344 141.355469 129.542969 141.355469 126.761719 C 141.355469 123.980469 142.578125 121.488281 145.035156 119.289062 C 147.515625 117.070312 150.957031 115.34375 155.371094 114.105469 C 159.746094 112.875 164.71875 112.261719 170.28125 112.261719 C 177.019531 112.261719 182.746094 113.089844 187.449219 114.746094 C 192.222656 116.433594 195.386719 118.757812 196.921875 121.722656 L 197.8125 123.441406 L 178.765625 123.441406 Z M 182.816406 121.410156 L 180.402344 122.066406 L 180.402344 120.691406 L 194.261719 120.691406 L 194.261719 122.066406 L 191.597656 122.410156 C 190.394531 120.097656 187.957031 118.292969 184.28125 116.996094 C 180.527344 115.671875 175.859375 115.011719 170.28125 115.011719 C 165.675781 115.011719 161.605469 115.507812 158.0625 116.503906 C 154.550781 117.488281 151.8125 118.863281 149.839844 120.628906 C 147.847656 122.414062 146.855469 124.457031 146.855469 126.761719 C 146.855469 129.0625 147.847656 131.097656 149.839844 132.871094 C 151.808594 134.625 154.558594 135.996094 158.09375 136.980469 C 161.660156 137.976562 165.746094 138.472656 170.355469 138.472656 C 174.234375 138.472656 177.699219 138.105469 180.738281 137.367188 C 183.800781 136.621094 186.324219 135.652344 188.292969 134.464844 C 190.277344 133.261719 191.683594 131.972656 192.503906 130.585938 L 195.140625 130.976562 L 192.390625 130.976562 L 192.390625 125.148438 L 195.140625 125.148438 L 195.140625 126.523438 L 167.859375 126.523438 L 167.859375 125.148438 L 170.609375 125.148438 L 170.609375 129.769531 L 167.859375 129.769531 L 167.859375 128.394531 L 187.589844 128.394531 L 186.378906 130.203125 C 185.21875 131.945312 183.34375 133.292969 180.746094 134.246094 C 178.136719 135.207031 174.988281 135.6875 171.308594 135.6875 C 166.03125 135.6875 161.839844 134.882812 158.730469 133.269531 C 155.652344 131.671875 154.109375 129.5 154.109375 126.761719 C 154.109375 124.179688 155.574219 122.089844 158.5 120.496094 C 161.488281 118.867188 165.417969 118.050781 170.28125 118.050781 C 173.078125 118.050781 175.542969 118.332031 177.675781 118.886719 C 179.90625 119.46875 181.621094 120.308594 182.816406 121.410156 Z M 182.816406 121.410156 "/>
<path style=" stroke:none;fill-rule:nonzero;fill:rgb(50.196081%,50.196081%,50.196081%);fill-opacity:1;" d="M 217.171875 113.925781 L 217.171875 129.328125 C 217.171875 130.511719 217.691406 131.386719 218.730469 131.957031 C 219.699219 132.488281 221.246094 132.753906 223.371094 132.753906 C 225.511719 132.753906 227.09375 132.484375 228.113281 131.941406 C 229.175781 131.375 229.714844 130.503906 229.714844 129.328125 L 229.714844 112.550781 L 247.75 112.550781 L 247.75 129.292969 C 247.75 131.847656 246.640625 134.03125 244.410156 135.839844 C 242.175781 137.65625 239.171875 139.027344 235.394531 139.949219 C 231.714844 140.847656 227.628906 141.300781 223.152344 141.300781 C 218.660156 141.300781 214.625 140.855469 211.035156 139.964844 C 207.34375 139.046875 204.425781 137.667969 202.292969 135.828125 C 200.1875 134.011719 199.136719 131.835938 199.136719 129.292969 L 199.136719 112.550781 L 217.171875 112.550781 Z M 211.671875 113.925781 L 214.421875 113.925781 L 214.421875 115.300781 L 201.886719 115.300781 L 201.886719 113.925781 L 204.636719 113.925781 L 204.636719 129.292969 C 204.636719 131.339844 205.4375 133.058594 207.046875 134.449219 C 208.628906 135.808594 210.777344 136.828125 213.484375 137.5 C 216.296875 138.199219 219.519531 138.550781 223.152344 138.550781 C 226.78125 138.550781 230.058594 138.191406 232.980469 137.480469 C 235.800781 136.789062 238.050781 135.761719 239.722656 134.398438 C 241.410156 133.03125 242.25 131.328125 242.25 129.292969 L 242.25 113.925781 L 245 113.925781 L 245 115.300781 L 232.464844 115.300781 L 232.464844 113.925781 L 235.214844 113.925781 L 235.214844 129.328125 C 235.214844 131.230469 234.183594 132.730469 232.121094 133.824219 C 230.011719 134.945312 227.09375 135.503906 223.371094 135.503906 C 219.625 135.503906 216.722656 134.941406 214.667969 133.808594 C 212.671875 132.714844 211.671875 131.222656 211.671875 129.328125 Z M 211.671875 113.925781 "/>
<path style=" stroke:none;fill-rule:nonzero;fill:rgb(50.196081%,50.196081%,50.196081%);fill-opacity:1;" d="M 269.085938 118.949219 L 269.085938 124.15625 L 266.335938 124.15625 L 266.335938 122.78125 L 285.882812 122.78125 L 285.882812 130.371094 L 266.335938 130.371094 L 266.335938 128.996094 L 269.085938 128.996094 L 269.085938 134.644531 L 266.335938 134.644531 L 266.335938 133.269531 L 288.082031 133.269531 L 288.082031 141.042969 L 251.050781 141.042969 L 251.050781 112.550781 L 288.082031 112.550781 L 288.082031 120.324219 L 266.335938 120.324219 L 266.335938 118.949219 Z M 263.585938 117.574219 L 285.332031 117.574219 L 285.332031 118.949219 L 282.582031 118.949219 L 282.582031 113.925781 L 285.332031 113.925781 L 285.332031 115.300781 L 253.800781 115.300781 L 253.800781 113.925781 L 256.550781 113.925781 L 256.550781 139.667969 L 253.800781 139.667969 L 253.800781 138.292969 L 285.332031 138.292969 L 285.332031 139.667969 L 282.582031 139.667969 L 282.582031 134.644531 L 285.332031 134.644531 L 285.332031 136.019531 L 263.585938 136.019531 L 263.585938 127.621094 L 283.132812 127.621094 L 283.132812 128.996094 L 280.382812 128.996094 L 280.382812 124.15625 L 283.132812 124.15625 L 283.132812 125.53125 L 263.585938 125.53125 Z M 263.585938 117.574219 "/>
<path style=" stroke:none;fill-rule:nonzero;fill:rgb(100%,100%,100%);fill-opacity:1;" d="M 115.589844 113.925781 L 115.589844 139.667969 L 103.046875 139.667969 L 103.046875 124.230469 L 91.527344 139.667969 L 81.402344 139.667969 L 69.816406 124.199219 L 69.816406 139.667969 L 57.277344 139.667969 L 57.277344 113.925781 L 72.089844 113.925781 L 86.546875 131.75 L 100.839844 113.925781 Z M 115.589844 113.925781 "/>
<path style=" stroke:none;fill-rule:nonzero;fill:rgb(100%,100%,100%);fill-opacity:1;" d="M 137.132812 113.925781 L 137.132812 139.667969 L 124.589844 139.667969 L 124.589844 113.925781 Z M 137.132812 113.925781 "/>
<path style=" stroke:none;fill-rule:nonzero;fill:rgb(100%,100%,100%);fill-opacity:1;" d="M 180.410156 122.0625 C 179.480469 121.207031 178.144531 120.558594 176.410156 120.105469 C 174.671875 119.652344 172.628906 119.425781 170.285156 119.425781 C 166.230469 119.425781 162.980469 120.09375 160.535156 121.425781 C 158.089844 122.761719 156.871094 124.539062 156.871094 126.761719 C 156.871094 129.128906 158.144531 130.980469 160.703125 132.3125 C 163.269531 133.644531 166.808594 134.3125 171.308594 134.3125 C 174.390625 134.3125 176.996094 133.925781 179.121094 133.144531 C 181.246094 132.363281 182.792969 131.238281 183.765625 129.769531 L 167.871094 129.769531 L 167.871094 125.144531 L 195.140625 125.144531 L 195.140625 130.980469 C 194.207031 132.542969 192.628906 133.996094 190.410156 135.34375 C 188.1875 136.683594 185.359375 137.769531 181.933594 138.605469 C 178.515625 139.4375 174.652344 139.855469 170.347656 139.855469 C 165.265625 139.855469 160.730469 139.300781 156.746094 138.1875 C 152.753906 137.070312 149.652344 135.519531 147.433594 133.542969 C 145.207031 131.5625 144.097656 129.300781 144.097656 126.761719 C 144.097656 124.21875 145.207031 121.953125 147.433594 119.957031 C 149.652344 117.964844 152.746094 116.414062 156.703125 115.300781 C 160.671875 114.191406 165.203125 113.636719 170.285156 113.636719 C 176.4375 113.636719 181.625 114.382812 185.847656 115.875 C 190.082031 117.363281 192.890625 119.425781 194.265625 122.0625 Z M 180.410156 122.0625 "/>
<path style=" stroke:none;fill-rule:nonzero;fill:rgb(100%,100%,100%);fill-opacity:1;" d="M 214.433594 113.925781 L 214.433594 129.324219 C 214.433594 130.863281 215.1875 132.050781 216.703125 132.886719 C 218.214844 133.714844 220.4375 134.125 223.371094 134.125 C 226.296875 134.125 228.546875 133.714844 230.121094 132.886719 C 231.6875 132.050781 232.472656 130.863281 232.472656 129.324219 L 232.472656 113.925781 L 244.996094 113.925781 L 244.996094 129.292969 C 244.996094 131.589844 244.015625 133.535156 242.058594 135.125 C 240.109375 136.707031 237.484375 137.90625 234.183594 138.71875 C 230.890625 139.527344 227.207031 139.925781 223.140625 139.925781 C 219.082031 139.925781 215.453125 139.53125 212.246094 138.738281 C 209.046875 137.941406 206.519531 136.746094 204.660156 135.144531 C 202.8125 133.542969 201.890625 131.589844 201.890625 129.292969 L 201.890625 113.925781 Z M 214.433594 113.925781 "/>
<path style=" stroke:none;fill-rule:nonzero;fill:rgb(100%,100%,100%);fill-opacity:1;" d="M 266.335938 118.949219 L 266.335938 124.15625 L 283.128906 124.15625 L 283.128906 129 L 266.335938 129 L 266.335938 134.644531 L 285.335938 134.644531 L 285.335938 139.667969 L 253.796875 139.667969 L 253.796875 113.925781 L 285.335938 113.925781 L 285.335938 118.949219 Z M 266.335938 118.949219 "/>
<path style=" stroke:none;fill-rule:nonzero;fill:rgb(100%,100%,100%);fill-opacity:1;" d="M 301.691406 140.820312 C 298.503906 140.820312 295.863281 140.332031 293.769531 139.359375 C 291.613281 138.355469 290.53125 137.113281 290.53125 135.640625 C 290.53125 134.144531 291.601562 132.886719 293.75 131.871094 C 295.847656 130.878906 298.492188 130.378906 301.691406 130.378906 C 304.835938 130.378906 307.457031 130.878906 309.554688 131.871094 C 311.703125 132.886719 312.769531 134.144531 312.769531 135.640625 C 312.769531 137.113281 311.691406 138.355469 309.535156 139.359375 C 307.441406 140.332031 304.828125 140.820312 301.691406 140.820312 Z M 301.691406 137.820312 C 303.253906 137.820312 304.503906 137.601562 305.445312 137.160156 C 306.332031 136.753906 306.769531 136.246094 306.769531 135.640625 C 306.769531 135.003906 306.328125 134.472656 305.429688 134.050781 C 304.488281 133.605469 303.242188 133.378906 301.691406 133.378906 C 300.085938 133.378906 298.816406 133.605469 297.875 134.050781 C 296.976562 134.472656 296.53125 135.003906 296.53125 135.640625 C 296.53125 136.246094 296.972656 136.753906 297.851562 137.160156 C 298.800781 137.601562 300.078125 137.820312 301.691406 137.820312 Z M 301.691406 137.820312 "/>
<path style=" stroke:none;fill-rule:nonzero;fill:rgb(100%,100%,100%);fill-opacity:1;" d="M 317.023438 127.800781 C 317.023438 125.269531 318 123.035156 319.941406 121.089844 C 321.925781 119.105469 324.648438 117.570312 328.113281 116.488281 C 331.585938 115.402344 335.453125 114.859375 339.707031 114.859375 C 343.113281 114.859375 346.25 115.222656 349.097656 115.941406 C 351.992188 116.675781 354.285156 117.667969 355.960938 118.925781 L 353.46875 119.761719 L 350.46875 119.761719 L 350.46875 107.902344 L 370.144531 107.902344 L 370.144531 140.5 L 350.46875 140.5 L 350.46875 135.800781 L 353.46875 135.800781 L 356.035156 136.574219 C 354.472656 137.875 352.265625 138.910156 349.410156 139.679688 C 346.59375 140.441406 343.359375 140.820312 339.707031 140.820312 C 335.445312 140.820312 331.578125 140.269531 328.097656 139.167969 C 324.640625 138.070312 321.921875 136.523438 319.9375 134.527344 C 317.992188 132.570312 317.023438 130.328125 317.023438 127.800781 Z M 323.023438 127.800781 C 323.023438 129.859375 323.785156 131.65625 325.3125 133.191406 C 326.796875 134.691406 328.796875 135.835938 331.3125 136.632812 C 333.804688 137.425781 336.609375 137.820312 339.707031 137.820312 C 342.347656 137.820312 344.632812 137.558594 346.5625 137.039062 C 348.453125 136.53125 349.894531 135.859375 350.894531 135.027344 L 356.46875 130.386719 L 356.46875 139 L 353.46875 139 L 353.46875 137.5 L 367.144531 137.5 L 367.144531 139 L 364.144531 139 L 364.144531 109.402344 L 367.144531 109.402344 L 367.144531 110.902344 L 353.46875 110.902344 L 353.46875 109.402344 L 356.46875 109.402344 L 356.46875 124.714844 L 350.96875 120.589844 C 349.875 119.769531 348.347656 119.113281 346.390625 118.621094 C 344.390625 118.113281 342.160156 117.859375 339.707031 117.859375 C 336.597656 117.859375 333.796875 118.25 331.296875 119.03125 C 328.785156 119.816406 326.789062 120.949219 325.304688 122.429688 C 323.785156 123.953125 323.023438 125.742188 323.023438 127.800781 Z M 350.46875 127.839844 C 350.46875 126.535156 349.796875 125.535156 348.460938 124.839844 C 347.15625 124.160156 345.570312 123.820312 343.707031 123.820312 C 341.832031 123.820312 340.238281 124.15625 338.9375 124.824219 C 337.609375 125.507812 336.945312 126.5 336.945312 127.800781 C 336.945312 129.109375 337.617188 130.117188 338.960938 130.828125 C 340.265625 131.515625 341.847656 131.859375 343.707031 131.859375 C 345.570312 131.859375 347.15625 131.519531 348.460938 130.839844 C 349.796875 130.144531 350.46875 129.144531 350.46875 127.839844 Z M 356.46875 127.839844 C 356.46875 129.949219 355.238281 131.640625 352.789062 132.917969 C 350.304688 134.214844 347.28125 134.859375 343.707031 134.859375 C 340.125 134.859375 337.09375 134.203125 334.609375 132.890625 C 332.164062 131.601562 330.945312 129.902344 330.945312 127.800781 C 330.945312 125.6875 332.175781 123.996094 334.632812 122.734375 C 337.117188 121.457031 340.140625 120.820312 343.707031 120.820312 C 347.28125 120.820312 350.304688 121.464844 352.789062 122.761719 C 355.238281 124.039062 356.46875 125.730469 356.46875 127.839844 Z M 356.46875 127.839844 "/>
<path style=" stroke:none;fill-rule:nonzero;fill:rgb(100%,100%,100%);fill-opacity:1;" d="M 412.464844 127.480469 C 412.464844 128.175781 412.378906 128.902344 412.207031 129.652344 L 411.898438 130.980469 L 378.261719 130.980469 L 378.261719 129.480469 L 381.257812 129.363281 C 381.410156 130.363281 381.988281 131.097656 382.992188 131.5625 C 383.988281 132.027344 385.238281 132.261719 386.742188 132.261719 C 387.894531 132.261719 388.820312 132.152344 389.527344 131.9375 C 390.195312 131.738281 390.730469 131.414062 391.144531 130.96875 L 391.945312 130.097656 L 412.285156 130.097656 L 411.332031 131.96875 C 410.472656 133.65625 408.929688 135.171875 406.695312 136.519531 C 404.457031 137.867188 401.660156 138.925781 398.304688 139.683594 C 394.976562 140.441406 391.285156 140.820312 387.226562 140.820312 C 382.339844 140.820312 377.964844 140.292969 374.105469 139.238281 C 370.183594 138.164062 367.121094 136.632812 364.917969 134.644531 C 362.746094 132.6875 361.664062 130.417969 361.664062 127.839844 C 361.664062 125.265625 362.730469 122.996094 364.871094 121.042969 C 367.042969 119.050781 370.097656 117.519531 374.023438 116.441406 C 377.886719 115.386719 382.289062 114.859375 387.226562 114.859375 C 392.050781 114.859375 396.367188 115.371094 400.167969 116.402344 C 404.039062 117.441406 407.058594 118.933594 409.238281 120.863281 C 411.386719 122.773438 412.464844 124.976562 412.464844 127.480469 Z M 406.464844 127.480469 C 406.464844 125.503906 405.648438 123.789062 404.011719 122.335938 C 402.402344 120.910156 400.167969 119.808594 397.320312 119.039062 C 394.402344 118.253906 391.039062 117.859375 387.226562 117.859375 C 383.308594 117.859375 379.867188 118.265625 376.902344 119.074219 C 374.003906 119.871094 371.746094 121.003906 370.136719 122.480469 C 368.488281 123.988281 367.664062 125.777344 367.664062 127.839844 C 367.664062 129.902344 368.496094 131.683594 370.167969 133.191406 C 371.808594 134.671875 374.082031 135.808594 376.980469 136.605469 C 379.949219 137.414062 383.363281 137.820312 387.226562 137.820312 C 390.417969 137.820312 393.285156 137.53125 395.824219 136.957031 C 398.335938 136.382812 400.425781 135.597656 402.074219 134.601562 C 403.738281 133.601562 404.882812 132.480469 405.519531 131.230469 L 408.425781 131.597656 L 408.425781 133.097656 L 393.863281 133.097656 L 393.863281 131.597656 L 396.585938 132.230469 C 395.664062 133.226562 394.347656 133.984375 392.644531 134.503906 C 390.976562 135.007812 389.011719 135.261719 386.742188 135.261719 C 383.664062 135.261719 381.050781 134.757812 378.898438 133.757812 C 376.753906 132.757812 375.542969 131.371094 375.273438 129.59375 L 375.023438 127.980469 L 409.226562 127.980469 L 409.226562 129.480469 L 406.242188 129.308594 C 406.394531 128.671875 406.464844 128.0625 406.464844 127.480469 Z M 392.464844 125.679688 C 392.464844 124.964844 392.007812 124.410156 391.101562 124.011719 C 390.066406 123.566406 388.714844 123.339844 387.066406 123.339844 C 385.503906 123.339844 384.214844 123.554688 383.207031 123.984375 C 382.199219 124.410156 381.570312 125.050781 381.308594 125.90625 L 378.347656 125.679688 L 378.347656 124.179688 L 395.464844 124.179688 L 395.464844 125.679688 Z M 398.464844 127.179688 L 374.851562 127.179688 L 375.378906 125.453125 C 375.867188 123.855469 377.179688 122.605469 379.324219 121.695312 C 381.457031 120.792969 384.039062 120.339844 387.066406 120.339844 C 390.210938 120.339844 392.867188 120.808594 395.027344 121.746094 C 397.320312 122.738281 398.464844 124.050781 398.464844 125.679688 Z M 398.464844 127.179688 "/>
<path style=" stroke:none;fill-rule:nonzero;fill:rgb(100%,100%,100%);fill-opacity:1;" d="M 424.195312 132.164062 L 434.519531 115.179688 L 455.550781 115.179688 L 437.582031 140.5 L 416.46875 140.5 L 398.5 115.179688 L 419.609375 115.179688 L 429.9375 132.164062 L 427.066406 132.597656 Z M 427.066406 137.757812 L 414.515625 117.117188 L 417.382812 116.679688 L 417.382812 118.179688 L 402.742188 118.179688 L 402.742188 116.679688 L 405.570312 116.179688 L 421.410156 138.496094 L 418.585938 139 L 418.585938 137.5 L 435.460938 137.5 L 435.460938 139 L 432.640625 138.496094 L 448.476562 116.179688 L 451.304688 116.679688 L 451.304688 118.179688 L 436.742188 118.179688 L 436.742188 116.679688 L 439.613281 117.117188 L 429.9375 133.035156 Z M 427.066406 137.757812 "/>
<path style=" stroke:none;fill-rule:nonzero;fill:rgb(0%,0%,0%);fill-opacity:1;" d="M 301.6875 139.324219 C 299.28125 139.324219 297.320312 138.96875 295.8125 138.261719 C 294.296875 137.550781 293.539062 136.675781 293.539062 135.636719 C 293.539062 134.574219 294.296875 133.683594 295.8125 132.957031 C 297.320312 132.238281 299.28125 131.875 301.6875 131.875 C 304.03125 131.875 305.960938 132.238281 307.476562 132.957031 C 309.003906 133.683594 309.769531 134.574219 309.769531 135.636719 C 309.769531 136.675781 309.003906 137.550781 307.476562 138.261719 C 305.960938 138.96875 304.03125 139.324219 301.6875 139.324219 Z M 301.6875 139.324219 "/>
<path style=" stroke:none;fill-rule:nonzero;fill:rgb(0%,0%,0%);fill-opacity:1;" d="M 320.035156 127.800781 C 320.035156 125.511719 320.894531 123.496094 322.617188 121.761719 C 324.351562 120.027344 326.710938 118.691406 329.703125 117.761719 C 332.6875 116.832031 336.019531 116.363281 339.703125 116.363281 C 342.628906 116.363281 345.3125 116.671875 347.742188 117.28125 C 350.171875 117.894531 352.082031 118.71875 353.472656 119.761719 L 353.472656 109.394531 L 367.140625 109.394531 L 367.140625 139 L 353.472656 139 L 353.472656 135.800781 C 352.179688 136.863281 350.347656 137.71875 347.972656 138.363281 C 345.609375 139.003906 342.851562 139.324219 339.703125 139.324219 C 336.019531 139.324219 332.6875 138.851562 329.703125 137.90625 C 326.710938 136.957031 324.351562 135.609375 322.617188 133.863281 C 320.894531 132.113281 320.035156 130.09375 320.035156 127.800781 Z M 353.472656 127.84375 C 353.472656 126.136719 352.519531 124.789062 350.617188 123.800781 C 348.726562 122.816406 346.421875 122.324219 343.703125 122.324219 C 340.976562 122.324219 338.671875 122.808594 336.785156 123.78125 C 334.894531 124.753906 333.953125 126.09375 333.953125 127.800781 C 333.953125 129.511719 334.894531 130.863281 336.785156 131.863281 C 338.671875 132.863281 340.976562 133.363281 343.703125 133.363281 C 346.421875 133.363281 348.726562 132.871094 350.617188 131.886719 C 352.519531 130.894531 353.472656 129.546875 353.472656 127.84375 Z M 353.472656 127.84375 "/>
<path style=" stroke:none;fill-rule:nonzero;fill:rgb(0%,0%,0%);fill-opacity:1;" d="M 409.464844 127.480469 C 409.464844 128.121094 409.382812 128.785156 409.214844 129.480469 L 378.257812 129.480469 C 378.476562 130.871094 379.371094 131.933594 380.945312 132.667969 C 382.511719 133.394531 384.445312 133.761719 386.738281 133.761719 C 390.152344 133.761719 392.527344 133.042969 393.863281 131.605469 L 408.425781 131.605469 C 407.675781 133.070312 406.324219 134.390625 404.382812 135.5625 C 402.433594 136.738281 399.996094 137.65625 397.070312 138.324219 C 394.136719 138.988281 390.851562 139.324219 387.214844 139.324219 C 382.851562 139.324219 378.964844 138.859375 375.550781 137.925781 C 372.132812 136.988281 369.464844 135.65625 367.550781 133.925781 C 365.632812 132.191406 364.675781 130.164062 364.675781 127.84375 C 364.675781 125.527344 365.617188 123.496094 367.507812 121.761719 C 369.394531 120.027344 372.050781 118.691406 375.464844 117.761719 C 378.882812 116.832031 382.800781 116.363281 387.214844 116.363281 C 391.535156 116.363281 395.371094 116.820312 398.738281 117.730469 C 402.097656 118.632812 404.722656 119.925781 406.613281 121.605469 C 408.511719 123.285156 409.464844 125.246094 409.464844 127.480469 Z M 395.464844 125.675781 C 395.464844 124.503906 394.664062 123.574219 393.070312 122.886719 C 391.472656 122.191406 389.472656 121.84375 387.070312 121.84375 C 384.777344 121.84375 382.839844 122.175781 381.257812 122.84375 C 379.683594 123.511719 378.714844 124.457031 378.339844 125.675781 Z M 395.464844 125.675781 "/>
<path style=" stroke:none;fill-rule:nonzero;fill:rgb(0%,0%,0%);fill-opacity:1;" d="M 427.066406 132.605469 L 436.753906 116.675781 L 451.296875 116.675781 L 435.460938 139 L 418.585938 139 L 402.753906 116.675781 L 417.378906 116.675781 Z M 427.066406 132.605469 "/>
</g>
</svg>
